<?xml version="1.0" encoding="UTF-8" standalone="no"?>
<!-- Created with Inkscape (http://www.inkscape.org/) -->

<svg
   xmlns:dc="http://purl.org/dc/elements/1.1/"
   xmlns:cc="http://creativecommons.org/ns#"
   xmlns:rdf="http://www.w3.org/1999/02/22-rdf-syntax-ns#"
   xmlns:svg="http://www.w3.org/2000/svg"
   xmlns="http://www.w3.org/2000/svg"
   xmlns:sodipodi="http://sodipodi.sourceforge.net/DTD/sodipodi-0.dtd"
   xmlns:inkscape="http://www.inkscape.org/namespaces/inkscape"
   width="84.666664mm"
   height="84.666664mm"
   viewBox="0 0 299.99999 299.99999"
   id="svg17558"
   version="1.1"
   inkscape:version="0.91 r13725"
   sodipodi:docname="lgfl_square_logo.svg"
   inkscape:export-filename="/home/mike/livingf/gf/images/lgfl_square_logo.png"
   inkscape:export-xdpi="241.67"
   inkscape:export-ydpi="241.67">
  <defs
     id="defs17560">
    <inkscape:path-effect
       effect="envelope"
       id="path-effect17455"
       is_visible="true"
       yy="true"
       xx="true"
       bendpath1="m 236.52,175.96221 344.59312,0"
       bendpath2="m 581.11312,175.96221 0,110.52"
       bendpath3="m 236.52,286.48221 344.59312,0"
       bendpath4="m 236.52,175.96221 0,110.52" />
  </defs>
  <sodipodi:namedview
     id="base"
     pagecolor="#ffffff"
     bordercolor="#666666"
     borderopacity="1.0"
     inkscape:pageopacity="0.0"
     inkscape:pageshadow="2"
     inkscape:zoom="1.4"
     inkscape:cx="151.43439"
     inkscape:cy="112.71985"
     inkscape:document-units="px"
     inkscape:current-layer="layer1"
     showgrid="false"
     fit-margin-top="0"
     fit-margin-left="0"
     fit-margin-right="0"
     fit-margin-bottom="0"
     inkscape:window-width="1366"
     inkscape:window-height="744"
     inkscape:window-x="0"
     inkscape:window-y="24"
     inkscape:window-maximized="1" />
  <metadata
     id="metadata17563">
    <rdf:RDF>
      <cc:Work
         rdf:about="">
        <dc:format>image/svg+xml</dc:format>
        <dc:type
           rdf:resource="http://purl.org/dc/dcmitype/StillImage" />
        <dc:title></dc:title>
      </cc:Work>
    </rdf:RDF>
  </metadata>
  <g
     inkscape:label="Layer 1"
     inkscape:groupmode="layer"
     id="layer1"
     transform="translate(-227.14286,-108.0765)">
    <rect
       style="opacity:1;fill:#ffffff;fill-opacity:1;fill-rule:nonzero;stroke:none;stroke-width:2.06795621;stroke-linecap:round;stroke-linejoin:miter;stroke-miterlimit:4;stroke-dasharray:none;stroke-opacity:1"
       id="rect17443"
       width="297.93204"
       height="297.93204"
       x="228.17683"
       y="109.11047" />
    <g
       id="g16839"
       transform="matrix(0.78390878,0,0,0.78390878,56.853372,76.81937)"
       inkscape:path-effect="#path-effect17455">
      <path
         d="m 269.94348,216.28625 c 1.68,-12.96 5.58,-22.92 11.7,-29.88 6.24,-7.08 14.4,-10.62 24.48,-10.62 10.08,0 15.12,3.48 15.12,10.44 0,4.68 -1.14,9 -3.42,12.96 -2.16,3.84 -5.1,7.08 -8.82,9.72 -7.32,4.92 -15.9,8.46 -25.74,10.62 -2.4,20.64 -5.94,35.4 -10.62,44.28 11.04,3.72 18.48,6.12 22.32,7.2 3.84,0.96 7.86,1.44 12.06,1.44 4.32,0 7.26,-1.74 8.82,-5.22 1.56,-3.48 2.7,-5.22 3.42,-5.22 1.44,0 2.16,0.9 2.16,2.7 0,5.64 -2.1,10.44 -6.3,14.4 -4.2,3.96 -8.76,5.94 -13.68,5.94 -5.04,0 -9.6,-0.84 -13.68,-2.52 -4.08,-1.68 -6.66,-2.76 -7.74,-3.24 -1.08,-0.48 -3.3,-1.5 -6.66,-3.06 -3.24,-1.56 -5.52,-2.64 -6.84,-3.24 -4.56,4.8 -10.68,7.2 -18.36,7.2 -3.12,0 -5.88,-1.14 -8.28,-3.42 -2.4,-2.28 -3.6,-4.98 -3.6,-8.1 0,-6.84 3.9,-10.26 11.7,-10.26 3.36,0 8.04,0.78 14.04,2.34 2.28,-7.2 4.68,-20.28 7.2,-39.24 -1.32,0.12 -3.12,0.18 -5.4,0.18 -2.16,0 -3.24,-0.36 -3.24,-1.08 0,-2.28 3.12,-3.72 9.36,-4.32 z m 13.86,-1.98 c 7.68,-1.68 13.98,-4.5 18.9,-8.46 5.04,-4.08 7.56,-9.36 7.56,-15.84 0,-6.48 -2.22,-9.72 -6.66,-9.72 -9.72,0 -16.32,11.34 -19.8,34.02 z m -25.92,54.9 c -6.96,-3 -11.28,-4.5 -12.96,-4.5 -1.56,0 -2.34,0.84 -2.34,2.52 0,1.68 0.72,3.12 2.16,4.32 1.56,1.2 3.54,1.8 5.94,1.8 2.4,0 4.8,-1.38 7.2,-4.14 z"
         style="font-style:normal;font-variant:normal;font-weight:normal;font-stretch:normal;font-size:180px;line-height:125%;font-family:Cookie;-inkscape-font-specification:Cookie;letter-spacing:0px;word-spacing:0px;opacity:1;fill:#5cb2ce;fill-opacity:1;stroke:none;stroke-width:1px;stroke-linecap:butt;stroke-linejoin:miter;stroke-opacity:1"
         id="path4276"
         inkscape:connector-curvature="0"
         inkscape:original-d="m 270.18,216.46221 q 2.52,-19.44 11.7,-29.88 9.36,-10.62 24.48,-10.62 15.12,0 15.12,10.44 0,7.02 -3.42,12.96 -3.24,5.76 -8.82,9.72 -10.98,7.38 -25.74,10.62 -3.6,30.96 -10.62,44.28 16.56,5.58 22.32,7.2 5.76,1.44 12.06,1.44 6.48,0 8.82,-5.22 2.34,-5.22 3.42,-5.22 2.16,0 2.16,2.7 0,8.46 -6.3,14.4 -6.3,5.94 -13.68,5.94 -7.56,0 -13.68,-2.52 -6.12,-2.52 -7.74,-3.24 -1.62,-0.72 -6.66,-3.06 -4.86,-2.34 -6.84,-3.24 -6.84,7.2 -18.36,7.2 -4.68,0 -8.28,-3.42 -3.6,-3.42 -3.6,-8.1 0,-10.26 11.7,-10.26 5.04,0 14.04,2.34 3.42,-10.8 7.2,-39.24 -1.98,0.18 -5.4,0.18 -3.24,0 -3.24,-1.08 0,-3.42 9.36,-4.32 z m 13.86,-1.98 q 11.52,-2.52 18.9,-8.46 7.56,-6.12 7.56,-15.84 0,-9.72 -6.66,-9.72 -14.58,0 -19.8,34.02 z m -25.92,54.9 q -10.44,-4.5 -12.96,-4.5 -2.34,0 -2.34,2.52 0,2.52 2.16,4.32 2.34,1.8 5.94,1.8 3.6,0 7.2,-4.14 z" />
      <path
         d="m 408.25942,241.66625 c 3.72,-1.08 7.62,-2.88 11.7,-5.4 4.08,-2.64 6.66,-3.96 7.74,-3.96 1.08,0 1.62,0.72 1.62,2.16 0,1.32 -0.84,2.58 -2.52,3.78 -6.12,4.32 -12.48,7.62 -19.08,9.9 -2.52,11.64 -8.16,20.34 -16.92,26.1 -8.76,5.76 -18.78,8.64 -30.06,8.64 -7.2,0 -13.56,-1.26 -19.08,-3.78 -5.4,-2.52 -9.54,-5.76 -12.42,-9.72 -5.76,-7.8 -8.64,-16.02 -8.64,-24.66 0,-11.16 1.68,-21.24 5.04,-30.24 3.48,-9.12 7.98,-16.38 13.5,-21.78 5.52,-5.52 11.46,-9.72 17.82,-12.6 6.48,-2.88 13.02,-4.32 19.62,-4.32 6.6,0 12.66,2.16 18.18,6.48 5.52,4.2 8.28,9.06 8.28,14.58 0,1.8 -0.72,3.3 -2.16,4.5 -1.32,1.2 -2.94,1.8 -4.86,1.8 -2.76,0 -4.68,-1.92 -5.76,-5.76 -2.64,-9.24 -8.94,-13.86 -18.9,-13.86 -8.4,0 -16.56,5.22 -24.48,15.66 -7.8,10.44 -11.7,22.8 -11.7,37.08 0,10.08 3,18.84 9,26.28 6.12,7.44 13.74,11.16 22.86,11.16 7.32,0 13.56,-2.1 18.72,-6.3 5.16,-4.2 8.46,-9.6 9.9,-16.2 -3,0.6 -6.66,0.9 -10.98,0.9 -4.32,0 -8.1,-1.02 -11.34,-3.06 -3.12,-2.04 -4.68,-4.8 -4.68,-8.28 0,-3.6 1.8,-6.66 5.4,-9.18 3.72,-2.52 8.4,-3.78 14.04,-3.78 5.64,0 10.38,1.14 14.22,3.42 3.96,2.28 5.94,5.76 5.94,10.44 z m -20.7,-7.74 c -5.4,0 -8.1,1.2 -8.1,3.6 0,1.8 1.08,3.3 3.24,4.5 2.16,1.2 4.38,1.8 6.66,1.8 2.4,0 4.8,-0.12 7.2,-0.36 -0.12,-2.88 -1.08,-5.16 -2.88,-6.84 -1.8,-1.8 -3.84,-2.7 -6.12,-2.7 z"
         style="font-style:normal;font-variant:normal;font-weight:normal;font-stretch:normal;font-size:180px;line-height:125%;font-family:Cookie;-inkscape-font-specification:Cookie;letter-spacing:0px;word-spacing:0px;opacity:1;fill:#5cb2ce;fill-opacity:1;stroke:none;stroke-width:1px;stroke-linecap:butt;stroke-linejoin:miter;stroke-opacity:1"
         id="path4278"
         inkscape:connector-curvature="0"
         inkscape:original-d="m 408.49594,241.84221 q 5.58,-1.62 11.7,-5.4 6.12,-3.96 7.74,-3.96 1.62,0 1.62,2.16 0,1.98 -2.52,3.78 -9.18,6.48 -19.08,9.9 -3.78,17.46 -16.92,26.1 -13.14,8.64 -30.06,8.64 -10.8,0 -19.08,-3.78 -8.1,-3.78 -12.42,-9.72 -8.64,-11.7 -8.64,-24.66 0,-16.74 5.04,-30.24 5.22,-13.68 13.5,-21.78 8.28,-8.28 17.82,-12.6 9.72,-4.32 19.62,-4.32 9.9,0 18.18,6.48 8.28,6.3 8.28,14.58 0,2.7 -2.16,4.5 -1.98,1.8 -4.86,1.8 -4.14,0 -5.76,-5.76 -3.96,-13.86 -18.9,-13.86 -12.6,0 -24.48,15.66 -11.7,15.66 -11.7,37.08 0,15.12 9,26.28 9.18,11.16 22.86,11.16 10.98,0 18.72,-6.3 7.74,-6.3 9.9,-16.2 -4.5,0.9 -10.98,0.9 -6.48,0 -11.34,-3.06 -4.68,-3.06 -4.68,-8.28 0,-5.4 5.4,-9.18 5.58,-3.78 14.04,-3.78 8.46,0 14.22,3.42 5.94,3.42 5.94,10.44 z m -20.7,-7.74 q -8.1,0 -8.1,3.6 0,2.7 3.24,4.5 3.24,1.8 6.66,1.8 3.6,0 7.2,-0.36 -0.18,-4.32 -2.88,-6.84 -2.7,-2.7 -6.12,-2.7 z" />
      <path
         d="m 432.16004,208.00625 c 0.1,0.47 1.7,7.99 1.8,8.46 0,2.04 -0.72,3.72 -2.16,5.04 -1.44,1.32 -3.12,1.98 -5.04,1.98 -1.92,0 -3.36,-0.9 -4.32,-2.7 -0.84,-1.8 -1.26,-3.78 -1.26,-5.94 0,-6.48 2.76,-12.3 8.28,-17.46 5.64,-5.28 12,-7.92 19.08,-7.92 0,0 1.08,0 1.08,0 2.4,-9.12 6,-13.68 10.8,-13.68 1.44,0 2.16,1.92 2.16,5.76 0,0.72 -0.18,3.6 -0.54,8.64 1.8,0.24 3.9,0.54 6.3,0.9 5.64,0.84 10.32,1.26 14.04,1.26 3.84,0 7.68,-0.6 11.52,-1.8 3.96,-1.32 6.6,-1.98 7.92,-1.98 3.36,0 5.04,1.74 5.04,5.22 0,3.36 -1.8,5.94 -5.4,7.74 -3.6,1.68 -8.82,2.52 -15.66,2.52 -6.84,0 -15.18,-1.56 -25.02,-4.68 -1.44,8.28 -2.28,14.52 -2.52,18.72 -0.24,4.2 -0.48,10.44 -0.72,18.72 5.04,-0.24 12,-0.36 20.88,-0.36 1.56,0 2.88,0.6 3.96,1.8 1.2,1.2 1.8,2.46 1.8,3.78 0,1.32 -0.42,2.4 -1.26,3.24 -0.84,0.84 -1.74,1.26 -2.7,1.26 0,0 -22.86,-1.26 -22.86,-1.26 -0.48,11.76 -0.9,19.74 -1.26,23.94 -0.24,4.2 -1.38,8.1 -3.42,11.7 -2.04,3.6 -4.44,5.4 -7.2,5.4 -1.56,0 -3.3,-0.84 -5.22,-2.52 -1.8,-1.56 -2.7,-3.06 -2.7,-4.5 0,-1.44 0.18,-2.52 0.54,-3.24 0.48,-0.84 0.96,-1.62 1.44,-2.34 0.6,-0.84 1.02,-1.5 1.26,-1.98 1.44,-3.12 2.76,-11.7 3.96,-25.74 -2.34,0.3 -4.68,0.6 -7.02,0.9 -0.96,0 -1.74,-0.3 -2.34,-0.9 -0.6,-0.72 -0.9,-1.5 -0.9,-2.34 0,-0.96 0.18,-1.8 0.54,-2.52 0.36,-0.72 1.08,-1.26 2.16,-1.62 1.08,-0.48 1.86,-0.78 2.34,-0.9 1.92,-0.48 3.84,-0.72 5.76,-0.72 0.24,-2.88 0.54,-9.12 0.9,-18.72 0.48,-9.6 1.14,-17.1 1.98,-22.5 -0.72,-0.12 -1.8,-0.18 -3.24,-0.18 -8.52,0 -12.78,3.84 -12.78,11.52 z"
         style="font-style:normal;font-variant:normal;font-weight:normal;font-stretch:normal;font-size:180px;line-height:125%;font-family:Cookie;-inkscape-font-specification:Cookie;letter-spacing:0px;word-spacing:0px;opacity:1;fill:#5cb2ce;fill-opacity:1;stroke:none;stroke-width:1px;stroke-linecap:butt;stroke-linejoin:miter;stroke-opacity:1"
         id="path4280"
         inkscape:connector-curvature="0"
         inkscape:original-d="m 432.39656,208.18221 1.8,8.46 q 0,3.06 -2.16,5.04 -2.16,1.98 -5.04,1.98 -2.88,0 -4.32,-2.7 -1.26,-2.7 -1.26,-5.94 0,-9.72 8.28,-17.46 8.46,-7.92 19.08,-7.92 l 1.08,0 q 3.6,-13.68 10.8,-13.68 2.16,0 2.16,5.76 0,1.08 -0.54,8.64 2.7,0.36 6.3,0.9 8.46,1.26 14.04,1.26 5.76,0 11.52,-1.8 5.94,-1.98 7.92,-1.98 5.04,0 5.04,5.22 0,5.04 -5.4,7.74 -5.4,2.52 -15.66,2.52 -10.26,0 -25.02,-4.68 -2.16,12.42 -2.52,18.72 -0.36,6.3 -0.72,18.72 7.56,-0.36 20.88,-0.36 2.34,0 3.96,1.8 1.8,1.8 1.8,3.78 0,1.98 -1.26,3.24 -1.26,1.26 -2.7,1.26 l -22.86,-1.26 q -0.72,17.64 -1.26,23.94 -0.36,6.3 -3.42,11.7 -3.06,5.4 -7.2,5.4 -2.34,0 -5.22,-2.52 -2.7,-2.34 -2.7,-4.5 0,-2.16 0.54,-3.24 0.72,-1.26 1.44,-2.34 0.9,-1.26 1.26,-1.98 2.16,-4.68 3.96,-25.74 l -7.02,0.9 q -1.44,0 -2.34,-0.9 -0.9,-1.08 -0.9,-2.34 0,-1.44 0.54,-2.52 0.54,-1.08 2.16,-1.62 1.62,-0.72 2.34,-0.9 2.88,-0.72 5.76,-0.72 0.36,-4.32 0.9,-18.72 0.72,-14.4 1.98,-22.5 -1.08,-0.18 -3.24,-0.18 -12.78,0 -12.78,11.52 z" />
      <path
         d="m 529.3966,216.28625 c 1.68001,-12.96 5.58001,-22.92 11.7,-29.88 6.24,-7.08 14.4,-10.62 24.48001,-10.62 10.08,0 15.12,3.48 15.12,10.44 0,4.68 -1.14,9 -3.42001,12.96 -2.15999,3.84 -5.09999,7.08 -8.82,9.72 -7.32,4.92 -15.9,8.46 -25.74,10.62 -2.4,20.64 -5.94,35.4 -10.62,44.28 11.04001,3.72 18.48001,6.12 22.32001,7.2 3.84,0.96 7.86,1.44 12.05999,1.44 4.32,0 7.26,-1.74 8.82001,-5.22 1.55999,-3.48 2.69999,-5.22 3.41999,-5.22 1.44,0 2.16,0.9 2.16,2.7 0,5.64 -2.1,10.44 -6.29999,14.4 -4.20001,3.96 -8.76001,5.94 -13.68,5.94 -5.04001,0 -9.60001,-0.84 -13.68001,-2.52 -4.08,-1.68 -6.66,-2.76 -7.74,-3.24 -1.08,-0.48 -3.3,-1.5 -6.65999,-3.06 -3.24001,-1.56 -5.52001,-2.64 -6.84001,-3.24 -4.56,4.8 -10.68,7.2 -18.36,7.2 -3.11999,0 -5.87999,-1.14 -8.28,-3.42 -2.4,-2.28 -3.6,-4.98 -3.6,-8.1 0,-6.84 3.9,-10.26 11.70001,-10.26 3.35999,0 8.03999,0.78 14.03999,2.34 2.28,-7.2 4.68,-20.28 7.20001,-39.24 -1.32,0.12 -3.12,0.18 -5.40001,0.18 -2.15999,0 -3.23999,-0.36 -3.23999,-1.08 0,-2.28 3.12,-3.72 9.35999,-4.32 z m 13.86,-1.98 c 7.68,-1.68 13.98,-4.5 18.90001,-8.46 5.03999,-4.08 7.55999,-9.36 7.55999,-15.84 0,-6.48 -2.22,-9.72 -6.65999,-9.72 -9.72001,0 -16.32001,11.34 -19.80001,34.02 z m -25.92,54.9 c -6.96,-3 -11.28,-4.5 -12.95999,-4.5 -1.56001,0 -2.34001,0.84 -2.34001,2.52 0,1.68 0.72,3.12 2.16001,4.32 1.55999,1.2 3.53999,1.8 5.94,1.8 2.39999,0 4.79999,-1.38 7.19999,-4.14 z"
         style="font-style:normal;font-variant:normal;font-weight:normal;font-stretch:normal;font-size:180px;line-height:125%;font-family:Cookie;-inkscape-font-specification:Cookie;letter-spacing:0px;word-spacing:0px;opacity:1;fill:#5cb2ce;fill-opacity:1;stroke:none;stroke-width:1px;stroke-linecap:butt;stroke-linejoin:miter;stroke-opacity:1"
         id="path4282"
         inkscape:connector-curvature="0"
         inkscape:original-d="m 529.63312,216.46221 q 2.52001,-19.44 11.7,-29.88 9.36,-10.62 24.48001,-10.62 15.12,0 15.12,10.44 0,7.02 -3.42001,12.96 -3.23999,5.76 -8.82,9.72 -10.98,7.38 -25.74,10.62 -3.6,30.96 -10.62,44.28 16.56001,5.58 22.32001,7.2 5.76,1.44 12.05999,1.44 6.48,0 8.82001,-5.22 2.33999,-5.22 3.41999,-5.22 2.16,0 2.16,2.7 0,8.46 -6.29999,14.4 -6.30001,5.94 -13.68,5.94 -7.56001,0 -13.68001,-2.52 -6.12,-2.52 -7.74,-3.24 -1.62,-0.72 -6.65999,-3.06 -4.86001,-2.34 -6.84001,-3.24 -6.84,7.2 -18.36,7.2 -4.67999,0 -8.28,-3.42 -3.6,-3.42 -3.6,-8.1 0,-10.26 11.70001,-10.26 5.03999,0 14.03999,2.34 3.42,-10.8 7.20001,-39.24 -1.98,0.18 -5.40001,0.18 -3.23999,0 -3.23999,-1.08 0,-3.42 9.35999,-4.32 z m 13.86,-1.98 q 11.52,-2.52 18.90001,-8.46 7.55999,-6.12 7.55999,-15.84 0,-9.72 -6.65999,-9.72 -14.58001,0 -19.80001,34.02 z m -25.92,54.9 q -10.44,-4.5 -12.95999,-4.5 -2.34001,0 -2.34001,2.52 0,2.52 2.16001,4.32 2.33999,1.8 5.94,1.8 3.59999,0 7.19999,-4.14 z" />
    </g>
    <rect
       style="opacity:1;fill:#5cb2ce;fill-opacity:1;fill-rule:nonzero;stroke:none;stroke-width:2;stroke-linecap:round;stroke-linejoin:miter;stroke-miterlimit:4;stroke-dasharray:none;stroke-opacity:1"
       id="rect17503"
       width="265.16504"
       height="6.0104074"
       x="244.56033"
       y="318.35779" />
    <rect
       y="193.87825"
       x="244.56033"
       height="6.0104074"
       width="265.16504"
       id="rect17507"
       style="opacity:1;fill:#5cb2ce;fill-opacity:1;fill-rule:nonzero;stroke:none;stroke-width:2;stroke-linecap:round;stroke-linejoin:miter;stroke-miterlimit:4;stroke-dasharray:none;stroke-opacity:1" />
  </g>
</svg>
